# Blender 4.3.0
# www.blender.org
mtllib base.mtl
o Plane
v -6.500000 0.000000 6.500000
v 6.500000 0.000000 6.500000
v -6.500000 0.000000 -6.500000
v 6.500000 0.000000 -6.500000
v -0.499996 0.000000 6.500000
v 0.499996 0.000000 6.500000
v 0.499996 0.000000 -6.500000
v -0.499996 0.000000 -6.500000
v -0.499996 0.000000 0.499996
v -0.499996 0.000000 -0.499996
v 0.499996 0.000000 0.499996
v 0.499996 0.000000 -0.499996
vn -0.0000 1.0000 -0.0000
vt 1.000000 0.000000
vt 1.000000 1.000000
vt 0.666667 1.000000
vt 0.666667 0.666667
vt 0.666667 0.333333
vt 0.666667 0.000000
vt 0.333333 0.333333
vt 0.333333 0.666667
vt 0.333333 1.000000
vt 0.000000 1.000000
vt 0.000000 0.000000
vt 0.333333 0.000000
s 1
f 2/1/1 4/2/1 7/3/1 12/4/1 11/5/1 6/6/1
f 9/7/1 10/8/1 8/9/1 3/10/1 1/11/1 5/12/1
f 10/8/1 12/4/1 7/3/1 8/9/1
o Plane.003
v -0.499996 -0.151737 6.500000
v 0.499996 -0.151737 6.500000
v -0.499996 -0.151737 0.499996
v -0.499996 -0.151737 -0.499996
v 0.499996 -0.151737 0.499996
v 0.499996 -0.151737 -0.499996
v -0.499996 -0.111958 6.500000
v -0.422271 -0.100000 6.422274
v 0.422271 -0.100000 6.422274
v 0.499996 -0.111958 6.500000
v -0.499996 -0.011958 0.499996
v -0.422271 -0.100000 0.422271
v -0.422271 -0.100000 0.577722
v -0.499996 -0.011958 -0.499996
v -0.422271 -0.100000 -0.422271
v 0.422271 -0.100000 0.577722
v 0.422271 -0.100000 0.422271
v 0.499996 -0.011958 0.499996
v 0.422271 -0.100000 -0.422271
v 0.499996 -0.011958 -0.499996
v -0.422271 0.015933 0.577722
v -0.499996 0.103975 0.499996
v -0.422271 0.015933 0.422271
v 0.499996 0.103975 0.499996
v 0.422271 0.015933 0.577722
v 0.422271 0.015933 0.422271
v -0.499996 0.003975 6.500000
v -0.422271 0.015933 6.422274
v 0.422271 0.015933 6.422274
v 0.499996 0.003975 6.500000
v -0.499996 0.103975 -0.499996
v -0.422271 0.015933 -0.422271
v 0.422271 0.015933 -0.422271
v 0.499996 0.103975 -0.499996
vn 0.1503 0.9771 -0.1503
vn -0.1503 0.9771 -0.1503
vn 0.1521 0.9884 -0.0000
vn 0.1503 0.9771 0.1503
vn -0.1521 0.9884 -0.0000
vn -0.1503 0.9771 0.1503
vn 0.4236 -0.7542 -0.5018
vn -0.1504 -0.9773 -0.1492
vn 0.1504 -0.9773 -0.1492
vn -0.4236 -0.7542 -0.5018
vn 1.0000 -0.0000 -0.0000
vn -0.1521 -0.9884 -0.0000
vn 0.7071 -0.0000 0.7071
vn -0.1503 -0.9771 -0.1503
vn 0.1429 -0.9897 0.0061
vn 0.1429 -0.9897 -0.0061
vn -0.9920 -0.1259 -0.0000
vn 0.1503 -0.9771 -0.1503
vn -0.7071 -0.0000 0.7071
vn -0.8040 -0.5946 -0.0036
vn 0.0186 -0.9998 -0.0054
vn -0.9155 -0.4023 -0.0000
vn -0.0189 -0.9998 -0.0057
vn 0.8040 -0.5054 0.3133
vn 0.9016 -0.2514 -0.3520
vn -0.2918 -0.7079 -0.6432
vn -0.7081 -0.6965 -0.1163
vn 0.7081 -0.6965 -0.1163
vn 0.2918 -0.7079 -0.6432
vn 0.0582 -0.9966 0.0582
vn -0.5937 -0.5432 -0.5937
vn 0.5937 -0.5432 -0.5937
vn -0.0582 -0.9966 0.0582
vt 0.333333 0.333333
vt 0.333333 0.000000
vt 0.666667 0.666667
vt 0.333333 0.666667
vt 0.666667 0.000000
vt 0.666667 0.333333
vt 0.359242 0.359242
vt 0.359242 0.640758
vt 0.640758 0.640758
vt 0.640758 0.359242
vt 0.359242 0.004318
vt 0.359242 0.329015
vt 0.640758 0.329015
vt 0.640758 0.004318
s 1
usemtl Material.002
f 23/13/12 19/14/8 13/14/2 15/13/4
f 32/15/20 26/16/14 16/16/5 18/15/7
f 13/14/2 14/17/3 17/18/6 15/13/4
f 15/13/4 17/18/6 18/15/7 16/16/5
f 26/16/14 23/13/12 15/13/4 16/16/5
f 22/17/11 30/18/18 17/18/6 14/17/3
f 30/18/18 32/15/20 18/15/7 17/18/6
f 24/19/13 27/20/15 31/21/19 29/22/17
f 20/23/9 25/24/13 28/25/16 21/26/10
f 21/26/10 28/25/16 37/25/25 41/26/29
f 28/25/16 29/22/17 30/18/18
f 20/23/9 21/26/10 22/17/11 19/14/8
f 31/21/19 27/20/15 44/20/32 45/21/33
f 27/20/15 24/19/13 35/19/23 44/20/32
f 20/23/9 19/14/8 39/14/27 40/23/28
f 30/18/18 29/22/17 38/22/26 36/18/24
f 28/25/16 25/24/13 24/19/13 29/22/17
f 23/13/12 26/16/14 43/16/31 34/13/22
f 19/14/8 22/17/11 14/17/3 13/14/2
f 34/13/22 35/19/23 33/24/21
f 39/14/27 34/13/22 33/24/21 40/23/28
f 34/13/22 43/16/31 44/20/32 35/19/23
f 41/26/29 37/25/25 36/18/24 42/17/30
f 38/22/26 45/21/33 46/15/34 36/18/24
f 45/21/33 44/20/32 43/16/31 46/15/34
f 22/17/11 21/26/10 41/26/29 42/17/30
f 26/16/14 32/15/20 46/15/34 43/16/31
f 30/18/18 22/17/11 42/17/30 36/18/24
f 24/19/13 25/24/13 33/24/21 35/19/23
f 29/22/17 31/21/19 45/21/33 38/22/26
f 19/14/8 23/13/12 34/13/22 39/14/27
f 28/25/16 30/18/18 36/18/24 37/25/25
f 25/24/13 20/23/9 40/23/28 33/24/21
f 32/15/20 30/18/18 36/18/24 46/15/34
