# Blender 4.3.0
# www.blender.org
mtllib thundermesh.mtl
o Plane
v 0.927740 14.383818 -0.583804
v 0.000001 -0.383065 1.201359
v -0.927741 14.687854 0.094893
v 0.000001 -0.368571 -0.494633
v 0.927740 14.383818 -0.583804
v 0.369223 13.742048 -0.456827
v 0.790147 11.946646 -0.588868
v 1.351656 10.996839 -0.443870
v 1.874183 9.718369 0.195815
v 1.465850 8.962214 0.385739
v 0.544342 8.503273 -0.010415
v -0.116918 7.631530 -0.436940
v -0.873895 7.096238 -1.563880
v -0.576597 6.029691 -1.627720
v -0.152209 5.061836 -0.770067
v 0.001688 3.593397 0.158301
v 0.000000 2.441336 0.195421
v 0.000000 1.359593 0.242694
v 0.000000 1.403099 -0.848603
v 0.000000 2.562057 -1.283291
v -0.198335 4.154530 -2.458301
v -0.681348 5.362181 -3.104248
v -1.202562 6.354186 -3.153145
v -1.535391 7.027804 -2.930653
v -1.874779 7.665430 -2.768199
v -1.942600 8.274069 -2.215863
v -0.854084 9.142996 -0.898688
v -0.338161 10.217129 -0.565327
v -1.443877 11.589005 -0.473714
v -1.376834 12.341055 -0.271057
v -1.280935 14.018908 0.102853
v -0.927741 14.687854 0.094893
v -1.512370 0.000000 1.512370
v 1.512370 0.000000 1.512370
v -1.512370 0.000000 -1.512370
v 1.512370 0.000000 -1.512370
v 0.000000 -0.024684 -1.000000
v -0.000000 1.079433 -2.296741
v 0.195090 -0.024684 -0.980785
v 0.448072 1.079433 -2.252610
v 0.382683 -0.024684 -0.923880
v 0.878925 1.079433 -2.121912
v 0.555570 -0.024684 -0.831470
v 1.276001 1.079433 -1.909671
v 0.707107 -0.024684 -0.707107
v 1.624041 1.079433 -1.624041
v 0.831470 -0.024684 -0.555570
v 1.909671 1.079433 -1.276001
v 0.923880 -0.024684 -0.382683
v 2.121912 1.079433 -0.878925
v 0.980785 -0.024684 -0.195090
v 2.252610 1.079433 -0.448072
v 1.000000 -0.024684 0.000000
v 2.296741 1.079433 0.000000
v 0.980785 -0.024684 0.195090
v 2.252610 1.079433 0.448072
v 0.923880 -0.024684 0.382683
v 2.121912 1.079433 0.878925
v 0.831470 -0.024684 0.555570
v 1.909671 1.079433 1.276001
v 0.707107 -0.024684 0.707107
v 1.624041 1.079433 1.624041
v 0.555570 -0.024684 0.831470
v 1.276001 1.079433 1.909671
v 0.382683 -0.024684 0.923880
v 0.878925 1.079433 2.121912
v 0.195090 -0.024684 0.980785
v 0.448072 1.079433 2.252610
v 0.000000 -0.024684 1.000000
v -0.000000 1.079433 2.296741
v -0.195090 -0.024684 0.980785
v -0.448072 1.079434 2.252610
v -0.382683 -0.024684 0.923880
v -0.878925 1.079434 2.121912
v -0.555570 -0.024684 0.831470
v -1.276001 1.079434 1.909671
v -0.707107 -0.024684 0.707107
v -1.624041 1.079434 1.624041
v -0.831470 -0.024684 0.555570
v -1.909671 1.079434 1.276001
v -0.923880 -0.024684 0.382683
v -2.121912 1.079434 0.878925
v -0.980785 -0.024684 0.195090
v -2.252610 1.079434 0.448072
v -1.000000 -0.024684 0.000000
v -2.296741 1.079434 0.000000
v -0.980785 -0.024684 -0.195090
v -2.252610 1.079434 -0.448072
v -0.923880 -0.024684 -0.382683
v -2.121912 1.079434 -0.878925
v -0.831470 -0.024684 -0.555570
v -1.909671 1.079434 -1.276001
v -0.707107 -0.024684 -0.707107
v -1.624041 1.079434 -1.624041
v -0.555570 -0.024684 -0.831470
v -1.276001 1.079434 -1.909671
v -0.382683 -0.024684 -0.923880
v -0.878925 1.079434 -2.121912
v -0.195090 -0.024684 -0.980785
v -0.448072 1.079434 -2.252610
vn 1.0000 -0.0000 -0.0000
vn 0.9952 0.0125 -0.0973
vn -0.2607 0.1218 -0.9577
vn -0.0723 0.0308 -0.9969
vn 0.1005 -0.1031 -0.9896
vn 0.2838 -0.1270 -0.9504
vn 0.4023 -0.1135 -0.9084
vn 0.5892 0.1560 -0.7928
vn 0.7190 0.1632 -0.6756
vn 0.8228 0.3196 -0.4700
vn 0.9003 0.3497 -0.2590
vn 0.9773 0.1740 -0.1208
vn 0.9971 0.0616 -0.0450
vn 0.9997 0.0212 -0.0156
vn 0.9982 0.0480 -0.0354
vn 0.9819 0.1552 -0.1087
vn 0.9380 0.2903 -0.1894
vn 0.8878 0.3568 -0.2905
vn 0.8321 0.3307 -0.4452
vn 0.7654 0.2329 -0.6000
vn 0.7081 0.1606 -0.6876
vn 0.5653 0.1304 -0.8145
vn 0.2642 -0.1269 -0.9561
vn -0.0386 0.0057 -0.9992
vn -0.1128 0.0594 -0.9918
vn -0.2258 0.1224 -0.9664
vn 0.4369 0.1142 -0.8922
vn -0.0000 1.0000 -0.0000
vn -0.0000 0.7614 0.6483
vn -0.1265 0.7614 0.6358
vn -0.2481 0.7614 0.5989
vn -0.3602 0.7614 0.5390
vn -0.4584 0.7614 0.4584
vn -0.5390 0.7614 0.3602
vn -0.5989 0.7614 0.2481
vn -0.6358 0.7614 0.1265
vn -0.6483 0.7614 -0.0000
vn -0.6358 0.7614 -0.1265
vn -0.5989 0.7614 -0.2481
vn -0.5390 0.7614 -0.3602
vn -0.4584 0.7614 -0.4584
vn -0.3602 0.7614 -0.5390
vn -0.2481 0.7614 -0.5989
vn -0.1265 0.7614 -0.6358
vn -0.0000 0.7614 -0.6483
vn 0.1265 0.7614 -0.6358
vn 0.2481 0.7614 -0.5989
vn 0.3602 0.7614 -0.5390
vn 0.4584 0.7614 -0.4584
vn 0.5390 0.7614 -0.3602
vn 0.5989 0.7614 -0.2481
vn 0.6358 0.7614 -0.1265
vn 0.6483 0.7614 -0.0000
vn 0.6358 0.7614 0.1265
vn 0.5989 0.7614 0.2481
vn 0.5390 0.7614 0.3602
vn 0.4584 0.7614 0.4584
vn 0.3602 0.7614 0.5390
vn 0.2481 0.7614 0.5989
vn 0.1265 0.7614 0.6358
vt 0.000000 0.133333
vt 0.000000 -0.000000
vt 1.000000 0.000000
vt 1.000000 0.133333
vt -0.000000 1.000000
vt 1.000000 1.000000
vt -0.000000 0.933333
vt 1.000000 0.933333
vt 0.000000 0.866667
vt 1.000000 0.866667
vt 0.000000 0.800000
vt 1.000000 0.800000
vt 0.000000 0.733333
vt 1.000000 0.733333
vt 0.000000 0.666667
vt 1.000000 0.666667
vt 0.000000 0.600000
vt 1.000000 0.600000
vt 0.000000 0.533333
vt 1.000000 0.533333
vt 0.000000 0.466667
vt 1.000000 0.466667
vt 0.000000 0.400000
vt 1.000000 0.400000
vt 0.000000 0.333333
vt 1.000000 0.333333
vt 0.000000 0.266667
vt 1.000000 0.266667
vt 0.000000 0.200000
vt 1.000000 0.200000
vt 0.000000 0.000000
vt 0.000000 1.000000
vt 0.968750 0.000000
vt 0.968750 1.000000
vt 0.937500 0.000000
vt 0.937500 1.000000
vt 0.906250 0.000000
vt 0.906250 1.000000
vt 0.875000 0.000000
vt 0.875000 1.000000
vt 0.843750 0.000000
vt 0.843750 1.000000
vt 0.812500 0.000000
vt 0.812500 1.000000
vt 0.781250 0.000000
vt 0.781250 1.000000
vt 0.750000 0.000000
vt 0.750000 1.000000
vt 0.718750 0.000000
vt 0.718750 1.000000
vt 0.687500 0.000000
vt 0.687500 1.000000
vt 0.656250 0.000000
vt 0.656250 1.000000
vt 0.625000 0.000000
vt 0.625000 1.000000
vt 0.593750 0.000000
vt 0.593750 1.000000
vt 0.562500 0.000000
vt 0.562500 1.000000
vt 0.531250 0.000000
vt 0.531250 1.000000
vt 0.500000 0.000000
vt 0.500000 1.000000
vt 0.468750 0.000000
vt 0.468750 1.000000
vt 0.437500 0.000000
vt 0.437500 1.000000
vt 0.406250 0.000000
vt 0.406250 1.000000
vt 0.375000 0.000000
vt 0.375000 1.000000
vt 0.343750 0.000000
vt 0.343750 1.000000
vt 0.312500 0.000000
vt 0.312500 1.000000
vt 0.281250 0.000000
vt 0.281250 1.000000
vt 0.250000 0.000000
vt 0.250000 1.000000
vt 0.218750 0.000000
vt 0.218750 1.000000
vt 0.187500 0.000000
vt 0.187500 1.000000
vt 0.156250 0.000000
vt 0.156250 1.000000
vt 0.125000 0.000000
vt 0.125000 1.000000
vt 0.093750 0.000000
vt 0.093750 1.000000
vt 0.062500 0.000000
vt 0.062500 1.000000
vt 0.031250 0.000000
vt 0.031250 1.000000
s 1
usemtl Material.003
f 18/1/1 2/2/1 4/3/1 19/4/1
f 1/5/1 5/5/2 32/6/27 3/6/1
f 5/5/2 6/7/3 31/8/26 32/6/27
f 6/7/3 7/9/4 30/10/25 31/8/26
f 7/9/4 8/11/5 29/12/24 30/10/25
f 8/11/5 9/13/6 28/14/23 29/12/24
f 9/13/6 10/15/7 27/16/22 28/14/23
f 10/15/7 11/17/8 26/18/21 27/16/22
f 11/17/8 12/19/9 25/20/20 26/18/21
f 12/19/9 13/21/10 24/22/19 25/20/20
f 13/21/10 14/23/11 23/24/18 24/22/19
f 14/23/11 15/25/12 22/26/17 23/24/18
f 15/25/12 16/27/13 21/28/16 22/26/17
f 16/27/13 17/29/14 20/30/15 21/28/16
f 17/29/14 18/1/1 19/4/1 20/30/15
usemtl Material.002
f 33/31/28 34/3/28 36/6/28 35/32/28
usemtl Material.001
f 37/3/29 39/33/30 40/34/30 38/6/29
f 39/33/30 41/35/31 42/36/31 40/34/30
f 41/35/31 43/37/32 44/38/32 42/36/31
f 43/37/32 45/39/33 46/40/33 44/38/32
f 45/39/33 47/41/34 48/42/34 46/40/33
f 47/41/34 49/43/35 50/44/35 48/42/34
f 49/43/35 51/45/36 52/46/36 50/44/35
f 51/45/36 53/47/37 54/48/37 52/46/36
f 53/47/37 55/49/38 56/50/38 54/48/37
f 55/49/38 57/51/39 58/52/39 56/50/38
f 57/51/39 59/53/40 60/54/40 58/52/39
f 59/53/40 61/55/41 62/56/41 60/54/40
f 61/55/41 63/57/42 64/58/42 62/56/41
f 63/57/42 65/59/43 66/60/43 64/58/42
f 65/59/43 67/61/44 68/62/44 66/60/43
f 67/61/44 69/63/45 70/64/45 68/62/44
f 69/63/45 71/65/46 72/66/46 70/64/45
f 71/65/46 73/67/47 74/68/47 72/66/46
f 73/67/47 75/69/48 76/70/48 74/68/47
f 75/69/48 77/71/49 78/72/49 76/70/48
f 77/71/49 79/73/50 80/74/50 78/72/49
f 79/73/50 81/75/51 82/76/51 80/74/50
f 81/75/51 83/77/52 84/78/52 82/76/51
f 83/77/52 85/79/53 86/80/53 84/78/52
f 85/79/53 87/81/54 88/82/54 86/80/53
f 87/81/54 89/83/55 90/84/55 88/82/54
f 89/83/55 91/85/56 92/86/56 90/84/55
f 91/85/56 93/87/57 94/88/57 92/86/56
f 93/87/57 95/89/58 96/90/58 94/88/57
f 95/89/58 97/91/59 98/92/59 96/90/58
f 97/91/59 99/93/60 100/94/60 98/92/59
f 99/93/60 37/31/29 38/32/29 100/94/60
